# This file uses centimeters as units for non-parametric coordinates.

mtllib Libro.mtl
g default
v 2.127338 1.951351 2.077252
v 2.126768 1.951351 2.165666
v 2.127338 1.952330 2.077252
v 2.126768 1.973713 2.165666
v 2.126199 1.951351 2.254081
v 2.126199 1.989543 2.254081
v 2.125629 1.951351 2.342494
v 2.125629 2.011741 2.342494
v 2.861010 1.951351 2.081980
v 2.125059 1.951351 2.430909
v 2.860440 1.973713 2.170394
v 2.860440 1.951351 2.170394
v 2.125059 2.023795 2.430909
v 2.859871 1.989543 2.258809
v 2.124489 2.009461 2.519325
v 2.124489 1.951351 2.519325
v 2.859871 1.951351 2.258809
v 2.123919 1.951351 2.607741
v 2.861010 1.952330 2.081980
v 2.859301 2.011741 2.347223
v 2.859301 1.951351 2.347223
v 2.123919 2.023795 2.607741
v 2.123350 2.011741 2.696155
v 2.123350 1.951351 2.696155
v 2.858731 1.951351 2.435637
v 2.858731 2.023795 2.435637
v 2.122780 1.989543 2.784570
v 2.122780 1.951351 2.784570
v 2.858161 1.951351 2.524053
v 2.858161 2.009461 2.524053
v 2.122210 1.973713 2.872986
v 2.122210 1.951351 2.872986
v 2.857591 1.951351 2.612469
v 2.857591 2.023795 2.612469
v 2.121641 1.952330 2.961400
v 2.121641 1.951351 2.961400
v 2.857022 1.951351 2.700884
v 2.857022 2.011741 2.700884
v 2.856452 1.989543 2.789298
v 2.856452 1.951351 2.789298
v 2.855882 1.973713 2.877714
v 2.855882 1.951351 2.877714
v 2.855313 1.952330 2.966128
v 2.855313 1.951351 2.966128
vt 0.171875 0.000000
vt 0.187500 0.000000
vt 0.171875 0.250000
vt 0.187500 0.250000
vt 0.203125 0.000000
vt 0.203125 0.250000
vt 0.218750 0.000000
vt 0.218750 0.250000
vt 0.375000 0.796875
vt 0.625000 0.796875
vt 0.375000 0.812500
vt 0.234375 0.000000
vt 0.375000 0.437500
vt 0.625000 0.437500
vt 0.375000 0.453125
vt 0.625000 0.812500
vt 0.375000 0.828125
vt 0.234375 0.250000
vt 0.375000 0.421875
vt 0.625000 0.421875
vt 0.250000 0.250000
vt 0.250000 0.000000
vt 0.625000 0.828125
vt 0.375000 0.843750
vt 0.265625 0.000000
vt 0.625000 0.453125
vt 0.375000 0.406250
vt 0.625000 0.406250
vt 0.625000 0.843750
vt 0.375000 0.859375
vt 0.265625 0.250000
vt 0.281250 0.250000
vt 0.281250 0.000000
vt 0.625000 0.859375
vt 0.375000 0.875000
vt 0.375000 0.390625
vt 0.625000 0.390625
vt 0.296875 0.250000
vt 0.296875 0.000000
vt 0.625000 0.875000
vt 0.375000 0.890625
vt 0.375000 0.375000
vt 0.625000 0.375000
vt 0.312500 0.250000
vt 0.828125 0.000000
vt 0.828125 0.250000
vt 0.812500 0.000000
vt 0.312500 0.000000
vt 0.812500 0.250000
vt 0.625000 0.890625
vt 0.375000 0.906250
vt 0.375000 0.359375
vt 0.625000 0.359375
vt 0.328125 0.250000
vt 0.328125 0.000000
vt 0.796875 0.000000
vt 0.625000 0.906250
vt 0.375000 0.921875
vt 0.375000 0.343750
vt 0.625000 0.343750
vt 0.796875 0.250000
vt 0.781250 0.000000
vt 0.375000 0.328125
vt 0.625000 0.328125
vt 0.625000 0.921875
vt 0.375000 0.937500
vt 0.781250 0.250000
vt 0.375000 0.312500
vt 0.625000 0.312500
vt 0.765625 0.000000
vt 0.625000 0.937500
vt 0.375000 0.953125
vt 0.765625 0.250000
vt 0.375000 0.296875
vt 0.625000 0.296875
vt 0.750000 0.250000
vt 0.750000 0.000000
vt 0.734375 0.000000
vt 0.734375 0.250000
vt 0.718750 0.250000
vt 0.718750 0.000000
vt 0.625000 0.953125
vt 0.703125 0.250000
vt 0.703125 0.000000
vt 0.687500 0.250000
vt 0.687500 0.000000
vt 0.671875 0.250000
vt 0.671875 0.000000
vn -0.999980 0.000000 -0.006369
vn -0.999980 0.000000 -0.006369
vn -0.999980 0.000000 -0.006369
vn -0.999979 0.000000 -0.006444
vn -0.999979 0.000000 -0.006444
vn -0.999979 0.000000 -0.006444
vn -0.999979 0.000000 -0.006444
vn -0.999979 0.000000 -0.006444
vn -0.999979 0.000000 -0.006444
vn -0.999979 0.000000 -0.006444
vn -0.999979 0.000000 -0.006444
vn -0.999979 0.000000 -0.006444
vn -0.999979 0.000000 -0.006444
vn -0.999979 0.000000 -0.006444
vn -0.999979 0.000000 -0.006444
vn -0.999979 0.000000 -0.006444
vn -0.999979 0.000000 -0.006444
vn -0.999979 0.000000 -0.006444
vn 0.000000 -1.000000 0.000000
vn 0.000000 -1.000000 0.000000
vn 0.000000 -1.000000 0.000000
vn -0.999979 0.000000 -0.006444
vn -0.999979 0.000000 -0.006444
vn -0.999979 0.000000 -0.006444
vn 0.001327 0.978566 -0.205928
vn 0.001327 0.978566 -0.205928
vn 0.001515 0.971978 -0.235068
vn 0.000000 -1.000000 0.000000
vn 0.000000 -1.000000 0.000000
vn 0.000000 -1.000000 0.000000
vn -0.999979 0.000000 -0.006444
vn -0.999979 0.000000 -0.006444
vn -0.999979 0.000000 -0.006444
vn 0.001355 0.977650 -0.210236
vn 0.001355 0.977650 -0.210236
vn 0.001327 0.978566 -0.205928
vn -0.999979 0.000000 -0.006444
vn -0.999979 0.000000 -0.006444
vn -0.999979 0.000000 -0.006444
vn -0.999979 0.000000 -0.006444
vn -0.999979 0.000000 -0.006444
vn -0.999979 0.000000 -0.006444
vn 0.000000 -1.000000 0.000000
vn 0.000000 -1.000000 0.000000
vn 0.000000 -1.000000 0.000000
vn -0.999979 0.000000 -0.006444
vn -0.999979 0.000000 -0.006444
vn -0.999979 0.000000 -0.006444
vn 0.001515 0.971978 -0.235068
vn 0.001327 0.978566 -0.205928
vn 0.001515 0.971980 -0.235059
vn 0.001225 0.981752 -0.190163
vn 0.001225 0.981753 -0.190158
vn 0.001355 0.977650 -0.210236
vn 0.000000 -1.000000 0.000000
vn 0.000000 -1.000000 0.000000
vn 0.000000 -1.000000 0.000000
vn -0.999979 0.000000 -0.006444
vn -0.999979 0.000000 -0.006444
vn -0.999979 0.000000 -0.006444
vn 0.000000 -1.000000 0.000000
vn 0.000000 -1.000000 0.000000
vn 0.000000 -1.000000 0.000000
vn -0.999979 0.000000 -0.006444
vn -0.999979 0.000000 -0.006444
vn -0.999979 0.000000 -0.006444
vn -0.999979 0.000000 -0.006444
vn -0.999979 0.000000 -0.006444
vn -0.999979 0.000000 -0.006444
vn 0.000000 -1.000000 0.000000
vn 0.000000 -1.000000 0.000000
vn 0.000000 -1.000000 0.000000
vn 0.001327 0.978566 -0.205928
vn 0.001355 0.977650 -0.210236
vn 0.001327 0.978566 -0.205928
vn 0.000000 -1.000000 0.000000
vn 0.000000 -1.000000 0.000000
vn 0.000000 -1.000000 0.000000
vn -0.000083 0.999917 0.012893
vn -0.000083 0.999917 0.012889
vn 0.001225 0.981752 -0.190163
vn -0.999979 0.000000 -0.006444
vn -0.999979 0.000000 -0.006444
vn -0.999979 0.000000 -0.006444
vn -0.999979 0.000000 -0.006444
vn -0.999979 0.000000 -0.006444
vn -0.999979 0.000000 -0.006444
vn 0.000000 -1.000000 0.000000
vn 0.000000 -1.000000 0.000000
vn 0.000000 -1.000000 0.000000
vn 0.000000 1.000000 0.000004
vn -0.000000 1.000000 -0.000004
vn -0.000083 0.999917 0.012893
vn 0.000000 -1.000000 0.000000
vn 0.000000 -1.000000 0.000000
vn 0.000000 -1.000000 0.000000
vn 0.001355 0.977650 -0.210236
vn 0.001225 0.981753 -0.190158
vn 0.001355 0.977650 -0.210236
vn -0.999979 0.000000 -0.006444
vn -0.999979 0.000000 -0.006444
vn -0.999979 0.000000 -0.006444
vn 0.999979 0.000000 0.006444
vn 0.999979 0.000000 0.006444
vn 0.999979 0.000000 0.006444
vn -0.999979 0.000000 -0.006444
vn -0.999979 0.000000 -0.006444
vn -0.999979 0.000000 -0.006444
vn 0.999979 0.000000 0.006444
vn 0.999979 0.000000 0.006444
vn 0.999979 0.000000 0.006444
vn 0.000000 -1.000000 0.000000
vn 0.000000 -1.000000 0.000000
vn 0.000000 -1.000000 0.000000
vn 0.000083 0.999917 -0.012889
vn 0.000083 0.999917 -0.012893
vn 0.000000 1.000000 0.000004
vn 0.000000 -1.000000 0.000000
vn 0.000000 -1.000000 0.000000
vn 0.000000 -1.000000 0.000000
vn -0.999979 0.000000 -0.006444
vn -0.999979 0.000000 -0.006444
vn -0.999979 0.000000 -0.006444
vn 0.001225 0.981752 -0.190163
vn -0.000083 0.999917 0.012889
vn 0.001225 0.981753 -0.190158
vn -0.999979 0.000000 -0.006444
vn -0.999979 0.000000 -0.006444
vn -0.999979 0.000000 -0.006444
vn 0.999979 0.000000 0.006444
vn 0.999979 0.000000 0.006444
vn 0.999979 0.000000 0.006444
vn 0.000000 -1.000000 0.000000
vn 0.000000 -1.000000 0.000000
vn 0.000000 -1.000000 0.000000
vn -0.001225 0.981753 0.190158
vn -0.001225 0.981752 0.190163
vn 0.000083 0.999917 -0.012889
vn 0.999979 0.000000 0.006444
vn 0.999979 0.000000 0.006444
vn 0.999979 0.000000 0.006444
vn 0.000000 -1.000000 0.000000
vn 0.000000 -1.000000 0.000000
vn 0.000000 -1.000000 0.000000
vn -0.000083 0.999917 0.012893
vn -0.000000 1.000000 -0.000004
vn -0.000083 0.999917 0.012889
vn 0.999979 0.000000 0.006444
vn 0.999979 0.000000 0.006444
vn 0.999979 0.000000 0.006444
vn -0.001354 0.977650 0.210234
vn -0.001355 0.977650 0.210233
vn -0.001225 0.981753 0.190158
vn 0.000000 -1.000000 0.000000
vn 0.000000 -1.000000 0.000000
vn 0.000000 -1.000000 0.000000
vn 0.000000 -1.000000 0.000000
vn 0.000000 -1.000000 0.000000
vn 0.000000 -1.000000 0.000000
vn 0.999979 0.000000 0.006444
vn 0.999979 0.000000 0.006444
vn 0.999979 0.000000 0.006444
vn 0.000000 1.000000 0.000004
vn 0.000083 0.999917 -0.012893
vn -0.000000 1.000000 -0.000004
vn -0.001327 0.978567 0.205927
vn -0.001327 0.978567 0.205926
vn -0.001354 0.977650 0.210234
vn 0.999979 0.000000 0.006444
vn 0.999979 0.000000 0.006444
vn 0.999979 0.000000 0.006444
vn 0.000000 -1.000000 0.000000
vn 0.000000 -1.000000 0.000000
vn 0.000000 -1.000000 0.000000
vn 0.000000 -1.000000 0.000000
vn 0.000000 -1.000000 0.000000
vn 0.000000 -1.000000 0.000000
vn 0.999979 0.000000 0.006444
vn 0.999979 0.000000 0.006444
vn 0.999979 0.000000 0.006444
vn -0.001514 0.971980 0.235059
vn -0.001515 0.971978 0.235068
vn -0.001327 0.978567 0.205927
vn 0.000083 0.999917 -0.012889
vn -0.001225 0.981752 0.190163
vn 0.000083 0.999917 -0.012893
vn 0.999979 0.000000 0.006444
vn 0.999979 0.000000 0.006444
vn 0.999979 0.000000 0.006444
vn 0.999979 0.000000 0.006444
vn 0.999979 0.000000 0.006444
vn 0.999979 0.000000 0.006444
vn 0.000000 -1.000000 0.000000
vn 0.000000 -1.000000 0.000000
vn 0.000000 -1.000000 0.000000
vn -0.001225 0.981753 0.190158
vn -0.001355 0.977650 0.210233
vn -0.001225 0.981752 0.190163
vn 0.999979 0.000000 0.006444
vn 0.999979 0.000000 0.006444
vn 0.999979 0.000000 0.006444
vn 0.000000 -1.000000 0.000000
vn 0.000000 -1.000000 0.000000
vn 0.000000 -1.000000 0.000000
vn -0.001354 0.977650 0.210234
vn -0.001327 0.978567 0.205926
vn -0.001355 0.977650 0.210233
vn 0.999979 0.000000 0.006444
vn 0.999979 0.000000 0.006444
vn 0.999979 0.000000 0.006444
vn -0.001327 0.978567 0.205927
vn -0.001515 0.971978 0.235068
vn -0.001327 0.978567 0.205926
vn 0.999979 0.000000 0.006444
vn 0.999979 0.000000 0.006444
vn 0.999979 0.000000 0.006444
vn 0.999979 0.000000 0.006444
vn 0.999979 0.000000 0.006444
vn 0.999979 0.000000 0.006444
vn 0.000000 -1.000000 0.000000
vn 0.000000 -1.000000 0.000000
vn 0.000000 -1.000000 0.000000
vn 0.999979 0.000000 0.006444
vn 0.999979 0.000000 0.006444
vn 0.999979 0.000000 0.006444
vn 0.999979 0.000000 0.006444
vn 0.999979 0.000000 0.006444
vn 0.999979 0.000000 0.006444
vn 0.999979 0.000000 0.006444
vn 0.999979 0.000000 0.006444
vn 0.999979 0.000000 0.006444
vn 0.999979 0.000000 0.006444
vn 0.999979 0.000000 0.006444
vn 0.999979 0.000000 0.006444
vn 0.999979 0.000000 0.006444
vn 0.999979 0.000000 0.006444
vn 0.999979 0.000000 0.006444
vn 0.999979 0.000000 0.006444
vn 0.999979 0.000000 0.006444
vn 0.999979 0.000000 0.006444
s off
g Cuarto:pCube25 group
usemtl Cuarto:phong2SG2
f 1/1/1 2/2/2 3/3/3
f 2/2/4 4/4/5 3/3/6
f 2/2/7 5/5/8 4/4/9
f 4/4/10 5/5/11 6/6/12
f 5/5/13 7/7/14 6/6/15
f 6/6/16 7/7/17 8/8/18
f 1/9/19 9/10/20 2/11/21
f 7/7/22 10/12/23 8/8/24
f 4/13/25 11/14/26 3/15/27
f 2/11/28 12/16/29 5/17/30
f 8/8/31 10/12/32 13/18/33
f 6/19/34 14/20/35 4/13/36
f 10/12/37 15/21/38 13/18/39
f 16/22/40 15/21/41 10/12/42
f 5/17/43 17/23/44 7/24/45
f 16/22/46 18/25/47 15/21/48
f 3/15/49 11/14/50 19/26/51
f 8/27/52 20/28/53 6/19/54
f 7/24/55 21/29/56 10/30/57
f 15/21/58 18/25/59 22/31/60
f 2/11/61 9/10/62 12/16/63
f 18/25/64 23/32/65 22/31/66
f 24/33/67 23/32/68 18/25/69
f 10/30/70 25/34/71 16/35/72
f 4/13/73 14/20/74 11/14/75
f 5/17/76 12/16/77 17/23/78
f 13/36/79 26/37/80 8/27/81
f 24/33/82 27/38/83 23/32/84
f 28/39/85 27/38/86 24/33/87
f 16/35/88 29/40/89 18/41/90
f 15/42/91 30/43/92 13/36/93
f 7/24/94 17/23/95 21/29/96
f 6/19/97 20/28/98 14/20/99
f 28/39/100 31/44/101 27/38/102
f 9/45/103 19/46/104 12/47/105
f 32/48/106 31/44/107 28/39/108
f 12/47/109 19/46/110 11/49/111
f 18/41/112 33/50/113 24/51/114
f 22/52/115 34/53/116 15/42/117
f 10/30/118 21/29/119 25/34/120
f 32/48/121 35/54/122 31/44/123
f 8/27/124 26/37/125 20/28/126
f 36/55/127 35/54/128 32/48/129
f 12/47/130 11/49/131 17/56/132
f 24/51/133 37/57/134 28/58/135
f 23/59/136 38/60/137 22/52/138
f 17/56/139 11/49/140 14/61/141
f 16/35/142 25/34/143 29/40/144
f 13/36/145 30/43/146 26/37/147
f 17/56/148 14/61/149 21/62/150
f 27/63/151 39/64/152 23/59/153
f 28/58/154 40/65/155 32/66/156
f 18/41/157 29/40/158 33/50/159
f 21/62/160 14/61/161 20/67/162
f 15/42/163 34/53/164 30/43/165
f 31/68/166 41/69/167 27/63/168
f 21/62/169 20/67/170 25/70/171
f 32/66/172 42/71/173 36/72/174
f 24/51/175 33/50/176 37/57/177
f 25/70/178 20/67/179 26/73/180
f 35/74/181 43/75/182 31/68/183
f 22/52/184 38/60/185 34/53/186
f 30/76/187 25/70/188 26/73/189
f 29/77/190 25/70/191 30/76/192
f 28/58/193 37/57/194 40/65/195
f 23/59/196 39/64/197 38/60/198
f 29/77/199 30/76/200 33/78/201
f 32/66/202 40/65/203 42/71/204
f 27/63/205 41/69/206 39/64/207
f 33/78/208 30/76/209 34/79/210
f 31/68/211 43/75/212 41/69/213
f 38/80/214 33/78/215 34/79/216
f 37/81/217 33/78/218 38/80/219
f 36/72/220 42/71/221 44/82/222
f 39/83/223 37/81/224 38/80/225
f 40/84/226 37/81/227 39/83/228
f 41/85/229 40/84/230 39/83/231
f 42/86/232 40/84/233 41/85/234
f 42/86/235 41/85/236 43/87/237
f 44/88/238 42/86/239 43/87/240
g default
v 2.091253 1.950466 2.069710
v 2.897190 1.950466 2.074904
v 2.091253 1.900885 2.069710
v 2.085500 1.900885 2.962415
v 2.897190 1.900885 2.074904
v 2.085500 1.950466 2.962415
v 2.891436 1.950466 2.967610
v 2.891436 1.900885 2.967610
vt 0.375000 0.500000
vt 0.625000 0.500000
vt 0.375000 0.750000
vt 0.125000 0.000000
vt 0.375000 0.000000
vt 0.125000 0.250000
vt 0.625000 0.750000
vt 0.375000 1.000000
vt 0.375000 0.250000
vt 0.625000 0.250000
vt 0.625000 1.000000
vt 0.875000 0.000000
vt 0.875000 0.250000
vt 0.625000 0.000000
vn 0.006443 0.000000 -0.999979
vn 0.006443 0.000000 -0.999979
vn 0.006443 0.000000 -0.999979
vn -0.999979 0.000000 -0.006444
vn -0.999979 0.000000 -0.006444
vn -0.999979 0.000000 -0.006444
vn 0.006444 0.000000 -0.999979
vn 0.006444 0.000000 -0.999979
vn 0.006444 0.000000 -0.999979
vn 0.000000 -1.000000 0.000000
vn 0.000000 -1.000000 0.000000
vn 0.000000 -1.000000 0.000000
vn -0.999979 0.000000 -0.006444
vn -0.999979 0.000000 -0.006444
vn -0.999979 0.000000 -0.006444
vn 0.000000 1.000000 0.000000
vn 0.000000 1.000000 0.000000
vn 0.000000 1.000000 0.000000
vn 0.000000 1.000000 0.000000
vn 0.000000 1.000000 0.000000
vn 0.000000 1.000000 0.000000
vn 0.000000 -1.000000 0.000000
vn 0.000000 -1.000000 0.000000
vn 0.000000 -1.000000 0.000000
vn 0.999979 0.000000 0.006444
vn 0.999979 0.000000 0.006444
vn 0.999979 0.000000 0.006444
vn -0.006444 0.000000 0.999979
vn -0.006444 0.000000 0.999979
vn -0.006444 0.000000 0.999979
vn 0.999979 0.000000 0.006444
vn 0.999979 0.000000 0.006444
vn 0.999979 0.000000 0.006444
vn -0.006444 0.000000 0.999979
vn -0.006444 0.000000 0.999979
vn -0.006444 0.000000 0.999979
s off
g group Cuarto:pCube25polySurface4
usemtl Cuarto:phong1SG4
f 45/89/241 46/90/242 47/91/243
f 47/92/244 48/93/245 45/94/246
f 47/91/247 46/90/248 49/95/249
f 47/91/250 49/95/251 48/96/252
f 45/94/253 48/93/254 50/97/255
f 45/89/256 51/98/257 46/90/258
f 50/97/259 51/98/260 45/89/261
f 48/96/262 49/95/263 52/99/264
f 51/98/265 49/100/266 46/101/267
f 48/93/268 52/102/269 50/97/270
f 52/102/271 49/100/272 51/98/273
f 50/97/274 52/102/275 51/98/276
